<?xml version="1.0" encoding="UTF-8"?>
<svg xmlns="http://www.w3.org/2000/svg" xmlns:xlink="http://www.w3.org/1999/xlink" width="200px" height="37px" viewBox="0 0 202 37" version="1.1">
<defs>
<filter id="alpha" filterUnits="objectBoundingBox" x="0%" y="0%" width="100%" height="100%">
  <feColorMatrix type="matrix" in="SourceGraphic" values="0 0 0 0 1 0 0 0 0 1 0 0 0 0 1 0 0 0 1 0"/>
</filter>
<mask id="mask0">
  <g filter="url(#alpha)">
<rect x="0" y="0" width="202" height="37" style="fill:rgb(0%,0%,0%);fill-opacity:0.945098;stroke:none;"/>
  </g>
</mask>
<clipPath id="clip1">
  <rect x="0" y="0" width="202" height="37"/>
</clipPath>
<g id="surface5" clip-path="url(#clip1)">
<path style=" stroke:none;fill-rule:evenodd;fill:rgb(23.137255%,25.098039%,36.078431%);fill-opacity:1;" d="M 183.269531 7.71875 C 184.929688 7.382812 185.703125 8.035156 185.59375 9.679688 C 183.34375 16.851562 181.136719 24.039062 178.984375 31.242188 C 178.445312 32.128906 177.667969 32.414062 176.65625 32.097656 C 176.289062 31.769531 176.042969 31.359375 175.921875 30.875 C 178.207031 23.082031 180.65625 15.363281 183.269531 7.71875 Z M 183.269531 7.71875 "/>
</g>
<mask id="mask1">
  <g filter="url(#alpha)">
<rect x="0" y="0" width="202" height="37" style="fill:rgb(0%,0%,0%);fill-opacity:0.921569;stroke:none;"/>
  </g>
</mask>
<clipPath id="clip2">
  <rect x="0" y="0" width="202" height="37"/>
</clipPath>
<g id="surface8" clip-path="url(#clip2)">
<path style=" stroke:none;fill-rule:evenodd;fill:rgb(23.137255%,24.705882%,35.686275%);fill-opacity:1;" d="M 16.28125 8.207031 C 17.363281 8.089844 18.382812 8.253906 19.34375 8.699219 C 19.996094 11.3125 18.976562 12.332031 16.28125 11.761719 C 14.992188 10.578125 14.992188 9.394531 16.28125 8.207031 Z M 16.28125 8.207031 "/>
</g>
<mask id="mask2">
  <g filter="url(#alpha)">
<rect x="0" y="0" width="202" height="37" style="fill:rgb(0%,0%,0%);fill-opacity:0.913725;stroke:none;"/>
  </g>
</mask>
<clipPath id="clip3">
  <rect x="0" y="0" width="202" height="37"/>
</clipPath>
<g id="surface11" clip-path="url(#clip3)">
<path style=" stroke:none;fill-rule:evenodd;fill:rgb(23.137255%,25.098039%,35.686275%);fill-opacity:1;" d="M 29.75 8.207031 C 31.976562 7.628906 33.078125 8.445312 33.054688 10.660156 C 32.863281 11.097656 32.578125 11.464844 32.199219 11.761719 C 29.835938 12.414062 28.734375 11.554688 28.890625 9.1875 C 29.230469 8.894531 29.515625 8.566406 29.75 8.207031 Z M 29.75 8.207031 "/>
</g>
<mask id="mask3">
  <g filter="url(#alpha)">
<rect x="0" y="0" width="202" height="37" style="fill:rgb(0%,0%,0%);fill-opacity:0.913725;stroke:none;"/>
  </g>
</mask>
<clipPath id="clip4">
  <rect x="0" y="0" width="202" height="37"/>
</clipPath>
<g id="surface14" clip-path="url(#clip4)">
<path style=" stroke:none;fill-rule:evenodd;fill:rgb(23.137255%,25.098039%,35.686275%);fill-opacity:1;" d="M 93.410156 8.207031 C 95.636719 7.628906 96.738281 8.445312 96.714844 10.660156 C 96.523438 11.097656 96.238281 11.464844 95.859375 11.761719 C 93.496094 12.414062 92.394531 11.554688 92.550781 9.1875 C 92.890625 8.894531 93.175781 8.566406 93.410156 8.207031 Z M 93.410156 8.207031 "/>
</g>
<mask id="mask4">
  <g filter="url(#alpha)">
<rect x="0" y="0" width="202" height="37" style="fill:rgb(0%,0%,0%);fill-opacity:0.921569;stroke:none;"/>
  </g>
</mask>
<clipPath id="clip5">
  <rect x="0" y="0" width="202" height="37"/>
</clipPath>
<g id="surface17" clip-path="url(#clip5)">
<path style=" stroke:none;fill-rule:evenodd;fill:rgb(23.137255%,24.705882%,35.686275%);fill-opacity:1;" d="M 124.503906 8.207031 C 125.585938 8.089844 126.605469 8.253906 127.566406 8.699219 C 128.21875 11.3125 127.199219 12.332031 124.503906 11.761719 C 123.214844 10.578125 123.214844 9.394531 124.503906 8.207031 Z M 124.503906 8.207031 "/>
</g>
<mask id="mask5">
  <g filter="url(#alpha)">
<rect x="0" y="0" width="202" height="37" style="fill:rgb(0%,0%,0%);fill-opacity:0.917647;stroke:none;"/>
  </g>
</mask>
<clipPath id="clip6">
  <rect x="0" y="0" width="202" height="37"/>
</clipPath>
<g id="surface20" clip-path="url(#clip6)">
<path style=" stroke:none;fill-rule:evenodd;fill:rgb(23.137255%,25.098039%,35.686275%);fill-opacity:1;" d="M 21.914062 9.1875 C 23.136719 9.1875 24.363281 9.1875 25.585938 9.1875 C 25.546875 13.273438 25.585938 17.355469 25.710938 21.441406 C 26.316406 21.886719 27.011719 22.046875 27.789062 21.929688 C 27.769531 22.839844 27.851562 23.738281 28.035156 24.625 C 26.316406 25.082031 24.6875 24.878906 23.136719 24.011719 C 22.757812 23.714844 22.472656 23.347656 22.28125 22.910156 C 21.925781 18.351562 21.804688 13.777344 21.914062 9.1875 Z M 21.914062 9.1875 "/>
</g>
<mask id="mask6">
  <g filter="url(#alpha)">
<rect x="0" y="0" width="202" height="37" style="fill:rgb(0%,0%,0%);fill-opacity:0.917647;stroke:none;"/>
  </g>
</mask>
<clipPath id="clip7">
  <rect x="0" y="0" width="202" height="37"/>
</clipPath>
<g id="surface23" clip-path="url(#clip7)">
<path style=" stroke:none;fill-rule:evenodd;fill:rgb(23.137255%,25.098039%,35.686275%);fill-opacity:1;" d="M 85.574219 9.1875 C 86.796875 9.1875 88.023438 9.1875 89.246094 9.1875 C 89.207031 13.273438 89.246094 17.355469 89.371094 21.441406 C 89.976562 21.886719 90.671875 22.046875 91.449219 21.929688 C 91.433594 22.839844 91.511719 23.738281 91.695312 24.625 C 89.980469 25.082031 88.347656 24.878906 86.796875 24.011719 C 86.417969 23.714844 86.132812 23.347656 85.941406 22.910156 C 85.585938 18.351562 85.464844 13.777344 85.574219 9.1875 Z M 85.574219 9.1875 "/>
</g>
<mask id="mask7">
  <g filter="url(#alpha)">
<rect x="0" y="0" width="202" height="37" style="fill:rgb(0%,0%,0%);fill-opacity:0.956863;stroke:none;"/>
  </g>
</mask>
<clipPath id="clip8">
  <rect x="0" y="0" width="202" height="37"/>
</clipPath>
<g id="surface26" clip-path="url(#clip8)">
<path style=" stroke:none;fill-rule:evenodd;fill:rgb(23.137255%,25.098039%,35.686275%);fill-opacity:1;" d="M 7.957031 9.925781 C 9.511719 9.882812 11.0625 9.925781 12.609375 10.046875 C 13.488281 10.160156 14.222656 10.527344 14.8125 11.148438 C 14.449219 12.078125 14.042969 12.976562 13.589844 13.84375 C 11.914062 12.859375 10.199219 12.738281 8.449219 13.476562 C 7.53125 14.382812 7.125 15.484375 7.222656 16.785156 C 9.183594 16.785156 11.140625 16.785156 13.097656 16.785156 C 13.097656 17.683594 13.097656 18.582031 13.097656 19.480469 C 11.140625 19.480469 9.183594 19.480469 7.222656 19.480469 C 7.222656 21.195312 7.222656 22.910156 7.222656 24.625 C 6 24.625 4.773438 24.625 3.550781 24.625 C 3.445312 20.9375 3.566406 17.261719 3.917969 13.597656 C 4.695312 11.71875 6.042969 10.492188 7.957031 9.925781 Z M 7.957031 9.925781 "/>
</g>
<mask id="mask8">
  <g filter="url(#alpha)">
<rect x="0" y="0" width="202" height="37" style="fill:rgb(0%,0%,0%);fill-opacity:0.945098;stroke:none;"/>
  </g>
</mask>
<clipPath id="clip9">
  <rect x="0" y="0" width="202" height="37"/>
</clipPath>
<g id="surface29" clip-path="url(#clip9)">
<path style=" stroke:none;fill-rule:evenodd;fill:rgb(23.137255%,25.098039%,35.686275%);fill-opacity:1;" d="M 73.332031 9.925781 C 77.777344 9.148438 81.082031 10.699219 83.25 14.578125 C 84.527344 20.921875 81.957031 24.351562 75.535156 24.871094 C 72.042969 24.902344 69.554688 23.347656 68.066406 20.214844 C 66.796875 15.164062 68.550781 11.734375 73.332031 9.925781 Z M 75.289062 12.863281 C 79.003906 13.4375 80.429688 15.558594 79.574219 19.234375 C 78.179688 21.632812 76.179688 22.328125 73.578125 21.316406 C 71.191406 19.488281 70.742188 17.242188 72.230469 14.578125 C 73.082031 13.660156 74.101562 13.089844 75.289062 12.863281 Z M 75.289062 12.863281 "/>
</g>
<mask id="mask9">
  <g filter="url(#alpha)">
<rect x="0" y="0" width="202" height="37" style="fill:rgb(0%,0%,0%);fill-opacity:0.956863;stroke:none;"/>
  </g>
</mask>
<clipPath id="clip10">
  <rect x="0" y="0" width="202" height="37"/>
</clipPath>
<g id="surface32" clip-path="url(#clip10)">
<path style=" stroke:none;fill-rule:evenodd;fill:rgb(23.137255%,25.098039%,36.078431%);fill-opacity:1;" d="M 172.007812 11.882812 C 173.800781 12.164062 174.414062 13.144531 173.84375 14.824219 C 171.207031 16.449219 168.636719 18.164062 166.128906 19.96875 C 168.636719 21.777344 171.207031 23.492188 173.84375 25.117188 C 174.417969 26.65625 173.890625 27.636719 172.25 28.054688 C 168.789062 25.957031 165.363281 23.792969 161.96875 21.5625 C 160.964844 20.398438 161.046875 19.296875 162.210938 18.253906 C 165.492188 16.125 168.757812 14 172.007812 11.882812 Z M 172.007812 11.882812 "/>
</g>
<mask id="mask10">
  <g filter="url(#alpha)">
<rect x="0" y="0" width="202" height="37" style="fill:rgb(0%,0%,0%);fill-opacity:0.956863;stroke:none;"/>
  </g>
</mask>
<clipPath id="clip11">
  <rect x="0" y="0" width="202" height="37"/>
</clipPath>
<g id="surface35" clip-path="url(#clip11)">
<path style=" stroke:none;fill-rule:evenodd;fill:rgb(23.137255%,25.098039%,36.078431%);fill-opacity:1;" d="M 188.410156 11.882812 C 192.367188 13.847656 196.082031 16.214844 199.550781 18.988281 C 200.191406 20.191406 199.90625 21.132812 198.695312 21.808594 C 195.453125 23.992188 192.144531 26.074219 188.777344 28.054688 C 187.183594 27.5625 186.734375 26.582031 187.429688 25.117188 C 189.960938 23.441406 192.492188 21.765625 195.023438 20.09375 C 192.472656 18.304688 189.902344 16.550781 187.308594 14.824219 C 186.851562 13.558594 187.21875 12.578125 188.410156 11.882812 Z M 188.410156 11.882812 "/>
</g>
<mask id="mask11">
  <g filter="url(#alpha)">
<rect x="0" y="0" width="202" height="37" style="fill:rgb(0%,0%,0%);fill-opacity:0.937255;stroke:none;"/>
  </g>
</mask>
<clipPath id="clip12">
  <rect x="0" y="0" width="202" height="37"/>
</clipPath>
<g id="surface38" clip-path="url(#clip12)">
<path style=" stroke:none;fill-rule:evenodd;fill:rgb(23.137255%,25.098039%,35.686275%);fill-opacity:1;" d="M 40.765625 13.355469 C 45.984375 13.226562 48.230469 15.757812 47.5 20.949219 C 46.332031 24.074219 44.085938 25.339844 40.765625 24.75 C 40.105469 24.5625 39.496094 24.273438 38.929688 23.890625 C 38.808594 25.441406 38.769531 26.992188 38.808594 28.546875 C 37.664062 28.546875 36.523438 28.546875 35.378906 28.546875 C 35.378906 23.5625 35.378906 18.582031 35.378906 13.597656 C 36.523438 13.597656 37.664062 13.597656 38.808594 13.597656 C 38.773438 13.855469 38.8125 14.101562 38.929688 14.335938 C 39.484375 13.84375 40.09375 13.519531 40.765625 13.355469 Z M 40.523438 16.292969 C 43.257812 16.132812 44.402344 17.398438 43.949219 20.09375 C 43.347656 21.703125 42.203125 22.273438 40.523438 21.808594 C 38.253906 19.972656 38.253906 18.132812 40.523438 16.292969 Z M 40.523438 16.292969 "/>
</g>
<mask id="mask12">
  <g filter="url(#alpha)">
<rect x="0" y="0" width="202" height="37" style="fill:rgb(0%,0%,0%);fill-opacity:0.933333;stroke:none;"/>
  </g>
</mask>
<clipPath id="clip13">
  <rect x="0" y="0" width="202" height="37"/>
</clipPath>
<g id="surface41" clip-path="url(#clip13)">
<path style=" stroke:none;fill-rule:evenodd;fill:rgb(23.137255%,24.705882%,35.686275%);fill-opacity:1;" d="M 53.5 13.355469 C 56.476562 12.945312 58.722656 14.007812 60.234375 16.539062 C 60.535156 17.410156 60.65625 18.308594 60.601562 19.234375 C 57.957031 19.566406 55.347656 20.058594 52.765625 20.707031 C 53.3125 21.632812 54.128906 22.042969 55.214844 21.929688 C 56.261719 21.914062 57.199219 21.589844 58.027344 20.949219 C 58.679688 21.5625 59.292969 22.214844 59.867188 22.910156 C 59.078125 23.980469 58.015625 24.59375 56.683594 24.75 C 54.347656 25.132812 52.226562 24.640625 50.316406 23.277344 C 47.980469 20.351562 48.0625 17.492188 50.5625 14.703125 C 51.488281 14.082031 52.46875 13.632812 53.5 13.355469 Z M 53.988281 16.050781 C 55.429688 15.859375 56.492188 16.390625 57.171875 17.640625 C 55.5625 18.0625 53.929688 18.347656 52.273438 18.5 C 52.371094 17.320312 52.941406 16.503906 53.988281 16.050781 Z M 53.988281 16.050781 "/>
</g>
<mask id="mask13">
  <g filter="url(#alpha)">
<rect x="0" y="0" width="202" height="37" style="fill:rgb(0%,0%,0%);fill-opacity:0.933333;stroke:none;"/>
  </g>
</mask>
<clipPath id="clip14">
  <rect x="0" y="0" width="202" height="37"/>
</clipPath>
<g id="surface44" clip-path="url(#clip14)">
<path style=" stroke:none;fill-rule:evenodd;fill:rgb(23.137255%,24.705882%,35.686275%);fill-opacity:1;" d="M 114.957031 13.355469 C 116.796875 13.144531 118.511719 13.515625 120.097656 14.457031 C 121.585938 15.699219 122.242188 17.292969 122.058594 19.234375 C 119.417969 19.566406 116.804688 20.058594 114.222656 20.707031 C 114.769531 21.632812 115.585938 22.042969 116.671875 21.929688 C 117.835938 21.851562 118.898438 21.566406 119.851562 21.074219 C 120.296875 21.722656 120.785156 22.332031 121.324219 22.910156 C 120.949219 23.488281 120.460938 23.9375 119.851562 24.257812 C 116.382812 25.558594 113.402344 24.863281 110.917969 22.175781 C 109.1875 17.757812 110.535156 14.816406 114.957031 13.355469 Z M 115.445312 16.050781 C 116.90625 15.800781 117.96875 16.332031 118.628906 17.640625 C 117.019531 18.0625 115.386719 18.347656 113.730469 18.5 C 113.921875 17.410156 114.492188 16.59375 115.445312 16.050781 Z M 115.445312 16.050781 "/>
</g>
<mask id="mask14">
  <g filter="url(#alpha)">
<rect x="0" y="0" width="202" height="37" style="fill:rgb(0%,0%,0%);fill-opacity:0.917647;stroke:none;"/>
  </g>
</mask>
<clipPath id="clip15">
  <rect x="0" y="0" width="202" height="37"/>
</clipPath>
<g id="surface47" clip-path="url(#clip15)">
<path style=" stroke:none;fill-rule:evenodd;fill:rgb(23.137255%,25.490196%,35.686275%);fill-opacity:1;" d="M 135.769531 13.355469 C 136.339844 13.355469 136.910156 13.355469 137.484375 13.355469 C 137.484375 14.417969 137.484375 15.476562 137.484375 16.539062 C 135.839844 16.238281 134.65625 16.808594 133.933594 18.253906 C 133.808594 20.378906 133.769531 22.5 133.808594 24.625 C 132.585938 24.625 131.359375 24.625 130.136719 24.625 C 130.136719 20.949219 130.136719 17.273438 130.136719 13.597656 C 131.28125 13.597656 132.421875 13.597656 133.566406 13.597656 C 133.527344 13.9375 133.566406 14.261719 133.6875 14.578125 C 134.304688 14.007812 135 13.601562 135.769531 13.355469 Z M 135.769531 13.355469 "/>
</g>
<mask id="mask15">
  <g filter="url(#alpha)">
<rect x="0" y="0" width="202" height="37" style="fill:rgb(0%,0%,0%);fill-opacity:0.941176;stroke:none;"/>
  </g>
</mask>
<clipPath id="clip16">
  <rect x="0" y="0" width="202" height="37"/>
</clipPath>
<g id="surface50" clip-path="url(#clip16)">
<path style=" stroke:none;fill-rule:evenodd;fill:rgb(23.137255%,25.098039%,35.686275%);fill-opacity:1;" d="M 142.378906 13.355469 C 143.199219 13.3125 144.015625 13.355469 144.828125 13.476562 C 145.550781 13.53125 146.164062 13.820312 146.664062 14.335938 C 146.78125 14.101562 146.824219 13.855469 146.785156 13.597656 C 148.011719 13.597656 149.234375 13.597656 150.460938 13.597656 C 150.460938 17.273438 150.460938 20.949219 150.460938 24.625 C 149.316406 24.625 148.175781 24.625 147.03125 24.625 C 147.066406 24.367188 147.027344 24.121094 146.910156 23.890625 C 144.433594 25.261719 142.023438 25.140625 139.6875 23.523438 C 137.976562 21.542969 137.527344 19.296875 138.339844 16.785156 C 139.0625 14.875 140.410156 13.730469 142.378906 13.355469 Z M 143.359375 16.292969 C 146.003906 16.285156 147.105469 17.59375 146.664062 20.214844 C 145.621094 22.023438 144.191406 22.390625 142.378906 21.316406 C 141.453125 19.917969 141.414062 18.488281 142.257812 17.03125 C 142.660156 16.808594 143.027344 16.5625 143.359375 16.292969 Z M 143.359375 16.292969 "/>
</g>
<mask id="mask16">
  <g filter="url(#alpha)">
<rect x="0" y="0" width="202" height="37" style="fill:rgb(0%,0%,0%);fill-opacity:0.929412;stroke:none;"/>
  </g>
</mask>
<clipPath id="clip17">
  <rect x="0" y="0" width="202" height="37"/>
</clipPath>
<g id="surface53" clip-path="url(#clip17)">
<path style=" stroke:none;fill-rule:evenodd;fill:rgb(23.137255%,25.098039%,35.686275%);fill-opacity:1;" d="M 15.792969 13.597656 C 16.933594 13.597656 18.078125 13.597656 19.21875 13.597656 C 19.21875 17.273438 19.21875 20.949219 19.21875 24.625 C 18.078125 24.625 16.933594 24.625 15.792969 24.625 C 15.792969 20.949219 15.792969 17.273438 15.792969 13.597656 Z M 15.792969 13.597656 "/>
</g>
<mask id="mask17">
  <g filter="url(#alpha)">
<rect x="0" y="0" width="202" height="37" style="fill:rgb(0%,0%,0%);fill-opacity:0.929412;stroke:none;"/>
  </g>
</mask>
<clipPath id="clip18">
  <rect x="0" y="0" width="202" height="37"/>
</clipPath>
<g id="surface56" clip-path="url(#clip18)">
<path style=" stroke:none;fill-rule:evenodd;fill:rgb(23.137255%,25.098039%,35.686275%);fill-opacity:1;" d="M 29.257812 13.597656 C 30.402344 13.597656 31.542969 13.597656 32.6875 13.597656 C 32.6875 17.273438 32.6875 20.949219 32.6875 24.625 C 31.542969 24.625 30.402344 24.625 29.257812 24.625 C 29.257812 20.949219 29.257812 17.273438 29.257812 13.597656 Z M 29.257812 13.597656 "/>
</g>
<mask id="mask18">
  <g filter="url(#alpha)">
<rect x="0" y="0" width="202" height="37" style="fill:rgb(0%,0%,0%);fill-opacity:0.929412;stroke:none;"/>
  </g>
</mask>
<clipPath id="clip19">
  <rect x="0" y="0" width="202" height="37"/>
</clipPath>
<g id="surface59" clip-path="url(#clip19)">
<path style=" stroke:none;fill-rule:evenodd;fill:rgb(23.137255%,25.098039%,35.686275%);fill-opacity:1;" d="M 92.921875 13.597656 C 94.0625 13.597656 95.207031 13.597656 96.347656 13.597656 C 96.347656 17.273438 96.347656 20.949219 96.347656 24.625 C 95.207031 24.625 94.0625 24.625 92.921875 24.625 C 92.921875 20.949219 92.921875 17.273438 92.921875 13.597656 Z M 92.921875 13.597656 "/>
</g>
<mask id="mask19">
  <g filter="url(#alpha)">
<rect x="0" y="0" width="202" height="37" style="fill:rgb(0%,0%,0%);fill-opacity:0.921569;stroke:none;"/>
  </g>
</mask>
<clipPath id="clip20">
  <rect x="0" y="0" width="202" height="37"/>
</clipPath>
<g id="surface62" clip-path="url(#clip20)">
<path style=" stroke:none;fill-rule:evenodd;fill:rgb(23.137255%,25.098039%,35.294118%);fill-opacity:1;" d="M 97.328125 13.84375 C 98.566406 13.519531 99.832031 13.519531 101.121094 13.84375 C 102.085938 16.023438 102.984375 18.226562 103.816406 20.460938 C 104.859375 18.292969 105.835938 16.085938 106.753906 13.84375 C 107.925781 13.523438 109.109375 13.523438 110.304688 13.84375 C 108.785156 17.414062 107.234375 20.96875 105.652344 24.503906 C 104.367188 24.699219 103.101562 24.660156 101.855469 24.378906 C 100.363281 20.832031 98.855469 17.320312 97.328125 13.84375 Z M 97.328125 13.84375 "/>
</g>
<mask id="mask20">
  <g filter="url(#alpha)">
<rect x="0" y="0" width="202" height="37" style="fill:rgb(0%,0%,0%);fill-opacity:0.929412;stroke:none;"/>
  </g>
</mask>
<clipPath id="clip21">
  <rect x="0" y="0" width="202" height="37"/>
</clipPath>
<g id="surface65" clip-path="url(#clip21)">
<path style=" stroke:none;fill-rule:evenodd;fill:rgb(23.137255%,25.098039%,35.686275%);fill-opacity:1;" d="M 124.015625 13.597656 C 125.160156 13.597656 126.300781 13.597656 127.445312 13.597656 C 127.445312 17.273438 127.445312 20.949219 127.445312 24.625 C 126.300781 24.625 125.160156 24.625 124.015625 24.625 C 124.015625 20.949219 124.015625 17.273438 124.015625 13.597656 Z M 124.015625 13.597656 "/>
</g>
</defs>
<g id="surface1">
<use xlink:href="#surface5" mask="url(#mask0)"/>
<use xlink:href="#surface8" mask="url(#mask1)"/>
<use xlink:href="#surface11" mask="url(#mask2)"/>
<use xlink:href="#surface14" mask="url(#mask3)"/>
<use xlink:href="#surface17" mask="url(#mask4)"/>
<use xlink:href="#surface20" mask="url(#mask5)"/>
<use xlink:href="#surface23" mask="url(#mask6)"/>
<use xlink:href="#surface26" mask="url(#mask7)"/>
<use xlink:href="#surface29" mask="url(#mask8)"/>
<use xlink:href="#surface32" mask="url(#mask9)"/>
<use xlink:href="#surface35" mask="url(#mask10)"/>
<use xlink:href="#surface38" mask="url(#mask11)"/>
<use xlink:href="#surface41" mask="url(#mask12)"/>
<use xlink:href="#surface44" mask="url(#mask13)"/>
<use xlink:href="#surface47" mask="url(#mask14)"/>
<use xlink:href="#surface50" mask="url(#mask15)"/>
<use xlink:href="#surface53" mask="url(#mask16)"/>
<use xlink:href="#surface56" mask="url(#mask17)"/>
<use xlink:href="#surface59" mask="url(#mask18)"/>
<use xlink:href="#surface62" mask="url(#mask19)"/>
<use xlink:href="#surface65" mask="url(#mask20)"/>
</g>
</svg>
